<svg width="102" height="102" viewBox="0 0 102 102" fill="none" xmlns="http://www.w3.org/2000/svg">
<path d="M25.5 45.6875C25.5 44.4317 25.7473 43.1883 26.2279 42.0281C26.7085 40.8679 27.4128 39.8138 28.3008 38.9258C29.1888 38.0378 30.2429 37.3335 31.4031 36.8529C32.5633 36.3723 33.8067 36.125 35.0625 36.125C36.3183 36.125 37.5617 36.3723 38.7219 36.8529C39.8821 37.3335 40.9362 38.0378 41.8242 38.9258C42.7122 39.8138 43.4165 40.8679 43.8971 42.0281C44.3777 43.1883 44.625 44.4317 44.625 45.6875C44.625 48.2236 43.6175 50.6559 41.8242 52.4492C40.0309 54.2425 37.5986 55.25 35.0625 55.25C32.5264 55.25 30.0941 54.2425 28.3008 52.4492C26.5075 50.6559 25.5 48.2236 25.5 45.6875ZM35.0625 42.5C34.2171 42.5 33.4064 42.8358 32.8086 43.4336C32.2108 44.0314 31.875 44.8421 31.875 45.6875C31.875 46.5329 32.2108 47.3436 32.8086 47.9414C33.4064 48.5392 34.2171 48.875 35.0625 48.875C35.9079 48.875 36.7186 48.5392 37.3164 47.9414C37.9142 47.3436 38.25 46.5329 38.25 45.6875C38.25 44.8421 37.9142 44.0314 37.3164 43.4336C36.7186 42.8358 35.9079 42.5 35.0625 42.5ZM35.0625 59.5C32.5264 59.5 30.0941 60.5075 28.3008 62.3008C26.5075 64.0941 25.5 66.5264 25.5 69.0625C25.5 71.5986 26.5075 74.0309 28.3008 75.8242C30.0941 77.6175 32.5264 78.625 35.0625 78.625C37.5986 78.625 40.0309 77.6175 41.8242 75.8242C43.6175 74.0309 44.625 71.5986 44.625 69.0625C44.625 66.5264 43.6175 64.0941 41.8242 62.3008C40.0309 60.5075 37.5986 59.5 35.0625 59.5ZM31.875 69.0625C31.875 68.2171 32.2108 67.4064 32.8086 66.8086C33.4064 66.2108 34.2171 65.875 35.0625 65.875C35.9079 65.875 36.7186 66.2108 37.3164 66.8086C37.9142 67.4064 38.25 68.2171 38.25 69.0625C38.25 69.9079 37.9142 70.7186 37.3164 71.3164C36.7186 71.9142 35.9079 72.25 35.0625 72.25C34.2171 72.25 33.4064 71.9142 32.8086 71.3164C32.2108 70.7186 31.875 69.9079 31.875 69.0625ZM51 45.6875C51 44.8421 51.3358 44.0314 51.9336 43.4336C52.5314 42.8358 53.3421 42.5 54.1875 42.5H73.3125C74.1579 42.5 74.9686 42.8358 75.5664 43.4336C76.1642 44.0314 76.5 44.8421 76.5 45.6875C76.5 46.5329 76.1642 47.3436 75.5664 47.9414C74.9686 48.5392 74.1579 48.875 73.3125 48.875H54.1875C53.3421 48.875 52.5314 48.5392 51.9336 47.9414C51.3358 47.3436 51 46.5329 51 45.6875ZM54.1875 65.875C53.3421 65.875 52.5314 66.2108 51.9336 66.8086C51.3358 67.4064 51 68.2171 51 69.0625C51 69.9079 51.3358 70.7186 51.9336 71.3164C52.5314 71.9142 53.3421 72.25 54.1875 72.25H73.3125C74.1579 72.25 74.9686 71.9142 75.5664 71.3164C76.1642 70.7186 76.5 69.9079 76.5 69.0625C76.5 68.2171 76.1642 67.4064 75.5664 66.8086C74.9686 66.2108 74.1579 65.875 73.3125 65.875H54.1875ZM25.5 28.6875C25.5 27.8421 25.8358 27.0314 26.4336 26.4336C27.0314 25.8358 27.8421 25.5 28.6875 25.5H73.3125C74.1579 25.5 74.9686 25.8358 75.5664 26.4336C76.1642 27.0314 76.5 27.8421 76.5 28.6875C76.5 29.5329 76.1642 30.3436 75.5664 30.9414C74.9686 31.5392 74.1579 31.875 73.3125 31.875H28.6875C27.8421 31.875 27.0314 31.5392 26.4336 30.9414C25.8358 30.3436 25.5 29.5329 25.5 28.6875ZM26.5625 12.75C22.8992 12.75 19.3859 14.2052 16.7956 16.7956C14.2052 19.3859 12.75 22.8992 12.75 26.5625V75.4375C12.75 79.1008 14.2052 82.6141 16.7956 85.2044C19.3859 87.7948 22.8992 89.25 26.5625 89.25H75.4375C79.1008 89.25 82.6141 87.7948 85.2044 85.2044C87.7948 82.6141 89.25 79.1008 89.25 75.4375V26.5625C89.25 22.8992 87.7948 19.3859 85.2044 16.7956C82.6141 14.2052 79.1008 12.75 75.4375 12.75H26.5625ZM19.125 26.5625C19.125 22.457 22.457 19.125 26.5625 19.125H75.4375C79.543 19.125 82.875 22.457 82.875 26.5625V75.4375C82.875 77.41 82.0914 79.3018 80.6966 80.6966C79.3018 82.0914 77.41 82.875 75.4375 82.875H26.5625C24.59 82.875 22.6982 82.0914 21.3034 80.6966C19.9086 79.3018 19.125 77.41 19.125 75.4375V26.5625Z" fill="white"/>
</svg>
