<svg width="102" height="106" viewBox="0 0 102 106" fill="none" xmlns="http://www.w3.org/2000/svg">
<path d="M47.7169 90.1351C47.5445 90.8496 47.1466 91.484 46.5864 91.9374C46.0262 92.3907 45.3358 92.637 44.625 92.6372C44.3564 92.6385 44.0888 92.6052 43.8281 92.5381L31.0781 89.235C30.7232 89.1426 30.3862 88.9875 30.082 88.7766L20.5195 82.1704C19.8163 81.6842 19.3282 80.9285 19.1627 80.0693C18.9972 79.2102 19.1678 78.3182 19.637 77.5894C20.1062 76.8607 20.8355 76.3549 21.6645 76.1834C22.4936 76.0119 23.3544 76.1887 24.0577 76.6749L33.158 82.9632L45.3741 86.13C45.7822 86.2326 46.1668 86.4177 46.5057 86.6747C46.8446 86.9318 47.1311 87.2557 47.3488 87.6279C47.5666 88.0001 47.7111 88.4131 47.7743 88.8434C47.8375 89.2737 47.8179 89.7126 47.7169 90.1351ZM100.586 50.3078C100.324 51.1311 99.9077 51.8924 99.3606 52.5479C98.8135 53.2035 98.1464 53.7402 97.398 54.127L87.9631 59.0157L81.9546 65.2461L66.0171 81.7617C65.6276 82.1649 65.144 82.4567 64.6133 82.6087C64.0826 82.7606 63.523 82.7675 62.989 82.6287L37.489 76.0225C37.1012 75.9216 36.735 75.7466 36.4092 75.5064L14.288 59.1395L4.61391 54.127C3.10198 53.3438 1.95211 51.9704 1.41714 50.3088C0.882164 48.6473 1.00588 46.8335 1.7611 45.2665L11.6623 24.75C12.4181 23.1833 13.7434 21.9917 15.3468 21.4373C16.9503 20.8829 18.7005 21.0111 20.2127 21.7937L29.0023 26.3355L50.1195 20.0844C50.6923 19.9146 51.2997 19.9146 51.8726 20.0844L72.9898 26.3355L81.7793 21.7937C83.2915 21.0111 85.0418 20.8829 86.6452 21.4373C88.2486 21.9917 89.574 23.1833 90.3298 24.75L100.231 45.2665C100.609 46.0408 100.834 46.885 100.895 47.7504C100.956 48.6157 100.851 49.4849 100.586 50.3078ZM74.9062 63.1817L63.8655 54.0197C56.0801 60.6259 46.1948 61.4971 38.003 56.0841C37.1972 55.553 36.5168 54.841 36.0122 54.0007C35.5076 53.1605 35.1916 52.2135 35.0875 51.2297C34.9835 50.246 35.0941 49.2505 35.4111 48.317C35.7281 47.3835 36.2435 46.5357 36.9192 45.8362C36.9288 45.8242 36.9395 45.8132 36.9511 45.8032L54.825 27.8384L51 26.7071L30.9108 32.6568L20.0055 55.2542L39.6087 69.7673L62.7738 75.7665L74.9062 63.1817ZM82.1738 55.6506L71.3442 33.1812H58.6659L41.4375 50.5225C46.4817 53.8628 54.3907 54.7835 61.4869 47.3722C62.0411 46.7933 62.7823 46.4473 63.5679 46.4008C64.3535 46.3543 65.128 46.6106 65.7422 47.1203L79.4524 58.5037L82.1738 55.6506Z" fill="white"/>
</svg>
