<svg width="102" height="107" viewBox="0 0 102 107" fill="none" xmlns="http://www.w3.org/2000/svg">
<path d="M51 97.57C45.1208 97.57 39.5958 96.4131 34.425 94.0995C29.2542 91.7859 24.7563 88.6486 20.9313 84.6878C17.1063 80.7241 14.0788 76.0631 11.849 70.7047C9.61917 65.3463 8.50283 59.6209 8.5 53.5285C8.5 47.4361 9.61633 41.7107 11.849 36.3523C14.0817 30.994 17.1091 26.3329 20.9313 22.3692C24.7563 18.4055 29.2542 15.2682 34.425 12.9575C39.5958 10.6468 45.1208 9.49 51 9.48706C56.8792 9.48706 62.4042 10.6439 67.575 12.9575C72.7458 15.2712 77.2438 18.4084 81.0688 22.3692C84.8938 26.3329 87.9226 30.994 90.1553 36.3523C92.3879 41.7107 93.5028 47.4361 93.5 53.5285C93.5 59.6209 92.3837 65.3463 90.151 70.7047C87.9183 76.0631 84.8909 80.7241 81.0688 84.6878C77.2438 88.6516 72.7458 91.7903 67.575 94.1039C62.4042 96.4175 56.8792 97.5729 51 97.57ZM51 88.7617C60.4917 88.7617 68.5312 85.3485 75.1187 78.522C81.7062 71.6956 85 63.3644 85 53.5285C85 43.6926 81.7062 35.3614 75.1187 28.535C68.5312 21.7086 60.4917 18.2954 51 18.2954C41.5083 18.2954 33.4687 21.7086 26.8812 28.535C20.2937 35.3614 17 43.6926 17 53.5285C17 63.3644 20.2937 71.6956 26.8812 78.522C33.4687 85.3485 41.5083 88.7617 51 88.7617ZM50.8938 84.3575C51.8854 84.3575 52.7538 83.9714 53.499 83.1992C54.2442 82.427 54.6153 81.5286 54.6125 80.5039V78.8523C58.1542 78.1917 61.2 76.7604 63.75 74.5583C66.3 72.3562 67.575 69.0898 67.575 64.7591C67.575 61.6762 66.725 58.8502 65.025 56.2811C63.325 53.712 59.925 51.4732 54.825 49.5648C50.575 48.0967 47.6354 46.8122 46.0062 45.7112C44.3771 44.6101 43.5625 43.1054 43.5625 41.1969C43.5625 39.2884 44.2184 37.7837 45.5303 36.6827C46.8421 35.5816 48.7362 35.0311 51.2125 35.0311C52.6292 35.0311 53.8688 35.288 54.9313 35.8018C55.9938 36.3156 56.8792 37.013 57.5875 37.8938C58.2958 38.7746 59.0934 39.3795 59.9803 39.7083C60.8671 40.0371 61.6987 40.0195 62.475 39.6555C63.5375 39.215 64.2643 38.4619 64.6553 37.3961C65.0462 36.3303 64.957 35.3585 64.3875 34.4806C63.2542 32.7923 61.8545 31.361 60.1885 30.1865C58.5225 29.0121 56.7347 28.3515 54.825 28.2047V26.5531C54.825 25.5255 54.4524 24.6256 53.7072 23.8534C52.9621 23.0812 52.0965 22.6966 51.1105 22.6995C50.1188 22.6995 49.2504 23.0856 48.5052 23.8578C47.7601 24.63 47.3889 25.5284 47.3918 26.5531V28.2047C43.8501 29.0121 41.0876 30.627 39.1043 33.0492C37.1209 35.4715 36.1278 38.1874 36.125 41.1969C36.125 44.6468 37.0997 47.4361 39.049 49.5648C40.9983 51.6935 44.0612 53.5285 48.2375 55.07C52.7 56.7582 55.7997 58.263 57.5365 59.5842C59.2733 60.9055 60.1403 62.6304 60.1375 64.7591C60.1375 67.1814 59.3045 68.9621 57.6385 70.1013C55.9725 71.2405 53.9722 71.8087 51.6375 71.8057C49.7958 71.8057 48.1313 71.3477 46.6438 70.4316C45.1562 69.5156 43.9167 68.1385 42.925 66.3005C42.3583 65.2729 41.6146 64.5756 40.6937 64.2086C39.7729 63.8416 38.8521 63.8416 37.9313 64.2086C36.9396 64.5756 36.2128 65.2729 35.751 66.3005C35.2892 67.3282 35.2722 68.3191 35.7 69.2733C36.8333 71.769 38.3563 73.8067 40.2688 75.3863C42.1813 76.9659 44.4833 78.0479 47.175 78.6321V80.5039C47.175 81.5315 47.5476 82.4315 48.2928 83.2036C49.0379 83.9758 49.9049 84.3605 50.8938 84.3575Z" fill="white"/>
</svg>
