<svg width="145" height="138" viewBox="0 0 145 138" fill="none" xmlns="http://www.w3.org/2000/svg">
<g clip-path="url(#clip0_15_55)">
<path d="M132.615 50.1457L132.464 49.1798L132.306 49.2143C131.233 44.4362 128.76 40.0451 125.173 36.549C121.587 33.0529 117.034 30.5947 112.04 29.4589C107.047 28.323 101.818 28.5559 96.9579 30.1306C92.098 31.7053 87.8058 34.5575 84.578 38.3571C81.3503 42.1566 79.3189 46.7484 78.7189 51.6009C78.1189 56.4535 78.9748 61.3686 81.1875 65.7775C83.4003 70.1864 86.8796 73.909 91.2227 76.5144C95.5658 79.1198 100.595 80.5016 105.729 80.5C107.076 80.5 108.369 80.3045 109.656 80.1263C109.239 81.4603 108.81 82.8172 108.122 84.0362C107.433 85.8072 106.358 87.3425 105.288 88.8892C104.394 90.5625 102.817 91.6952 101.657 93.127C100.443 94.5185 98.7873 95.4442 97.4763 96.6C96.1894 97.8075 94.5038 98.4113 93.1625 99.2623C91.7609 100.027 90.5404 100.872 89.2354 101.275L85.979 102.551L83.1152 103.684L86.0394 114.833L89.6463 114.005C90.8002 113.729 92.2079 113.407 93.809 113.022C95.4463 112.734 97.1923 111.947 99.1377 111.228C101.053 110.406 103.282 109.86 105.349 108.543C107.427 107.289 109.825 106.243 111.94 104.564C113.988 102.833 116.459 101.332 118.284 99.1357C120.278 97.0772 122.247 94.9153 123.776 92.4543C125.546 90.1083 126.748 87.5322 128.017 84.985C129.165 82.4377 130.089 79.833 130.844 77.303C132.276 72.2315 132.917 67.413 133.164 63.2902C133.37 59.1618 133.249 55.729 132.995 53.245C132.91 52.2076 132.783 51.1738 132.615 50.1457ZM66.1563 50.1457L66.0052 49.1798L65.8481 49.2143C64.7746 44.4362 62.3015 40.0451 58.715 36.549C55.1285 33.0529 50.5752 30.5947 45.582 29.4589C40.5887 28.323 35.3596 28.5559 30.4996 30.1306C25.6396 31.7053 21.3474 34.5575 18.1197 38.3571C14.8919 42.1566 12.8605 46.7484 12.2605 51.6009C11.6605 56.4535 12.5164 61.3686 14.7292 65.7775C16.942 70.1864 20.4212 73.909 24.7644 76.5144C29.1075 79.1198 34.1369 80.5016 39.2708 80.5C40.6181 80.5 41.9111 80.3045 43.1979 80.1263C42.7811 81.4603 42.3521 82.8172 41.6633 84.0362C40.9746 85.8072 39.8992 87.3425 38.8298 88.8892C37.9356 90.5625 36.3588 91.6952 35.1988 93.127C33.9844 94.5185 32.329 95.4442 31.0179 96.6C29.7311 97.8075 28.0454 98.4113 26.7042 99.2623C25.3025 100.027 24.0821 100.872 22.7771 101.275L19.5206 102.551C17.7021 103.258 16.6629 103.673 16.6629 103.673L19.5871 114.822L23.194 113.994C24.3479 113.718 25.7556 113.396 27.3567 113.01C28.994 112.723 30.74 111.935 32.6854 111.216C34.6006 110.394 36.83 109.848 38.8963 108.531C40.9746 107.278 43.3731 106.231 45.4877 104.552C47.5358 102.822 50.0069 101.321 51.8315 99.1243C53.8252 97.0658 55.7948 94.9037 57.3233 92.4427C59.0936 90.0967 60.2958 87.5207 61.5646 84.9735C62.7125 82.4263 63.6369 79.8215 64.3921 77.2915C65.824 72.22 66.4644 67.4015 66.7121 63.2788C66.9175 59.1503 66.7967 55.7175 66.5429 53.2335C66.4527 52.2002 66.3238 51.1703 66.1563 50.1457Z" fill="#659DA7" fill-opacity="0.29"/>
</g>
<defs>
<clipPath id="clip0_15_55">
<rect width="145" height="138" fill="white"/>
</clipPath>
</defs>
</svg>
